# AST/ASF file generated using VICON BodyLanguage
# -----------------------------------------------
:version 1.10
:name VICON
:units
  mass 1.0
  length 0.45
  angle deg
:documentation
   .ast/.asf automatically generated from VICON data using
   VICON BodyBuilder and BodyLanguage model FoxedUp or BRILLIANT.MOD
:root
   order TX TY TZ RX RY RZ
   axis XYZ
   position 0 0 0  
   orientation 0 0 0 
:bonedata
  begin
     id 1 
     name lhipjoint
     direction 0.57768 -0.667037 0.470475 
     length 2.36008 
     axis 0 0 0  XYZ
  end
  begin
     id 2 
     name lfemur
     direction 0.34202 -0.939693 0  
     length 6.97235  
     axis 0 0 20  XYZ
    dof rx ry rz
    limits (-160.0 20.0)
           (-70.0 70.0)
           (-60.0 70.0)
  end
  begin
     id 3 
     name ltibia
     direction 0.34202 -0.939693 0   
     length 6.93428   
     axis 0 0 20   XYZ
    dof rx
    limits (-10.0 170.0)
  end
  begin
     id 4 
     name lfoot
     direction 0.133018 -0.365463 0.921272   
     length 2.18603   
     axis -90 7.62852e-016 20   XYZ
    dof rx rz
    limits (-45.0 90.0)
           (-70.0 20.0)
  end
  begin
     id 5 
     name ltoes
     direction 1.53519e-011 -4.22055e-011 1   
     length 1.07924   
     axis -90 7.62852e-016 20   XYZ
    dof rx
    limits (-90.0 20.0)
  end
  begin
     id 6 
     name rhipjoint
     direction -0.577712 -0.667019 0.470462   
     length 2.36015  
     axis 0 0 0  XYZ 
  end
  begin
     id 7 
     name rfemur
     direction -0.34202 -0.939693 0   
     length 6.71195   
     axis 0 0 -20   XYZ
    dof rx ry rz
    limits (-160.0 20.0)
           (-70.0 70.0)
           (-70.0 60.0)
  end
  begin
     id 8 
     name rtibia
     direction -0.34202 -0.939693 0   
     length 7.04592   
     axis 0 0 -20   XYZ
    dof rx
    limits (-10.0 170.0)
 end
 begin
     id 9 
     name rfoot
     direction -0.113796 -0.312651 0.943027   
     length 2.03846  
     axis -90 -7.62852e-016 -20   XYZ
    dof rx rz
    limits (-45.0 90.0)
           (-20.0 70.0)
  end
  begin
     id 10 
     name rtoes
     direction -1.53586e-011 -4.218e-011 1   
     length 1.01562   
     axis -90 -7.62852e-016 -20   XYZ
    dof rx
    limits (-90.0 20.0)
  end
  begin
     id 11 
     name lowerback
     direction -0.0417299 0.991937 -0.119667   
     length 2.05257   
     axis 0 0 0   XYZ
    dof rx ry rz
    limits (-20.0 45.0)
           (-30.0 30.0)
           (-30.0 30.0)
  end
  begin
     id 12 
     name upperback
     direction -0.00017666 0.999999 0.00105178   
     length 2.05693   
     axis 0 0 0   XYZ
    dof rx ry rz
    limits (-20.0 45.0)
           (-30.0 30.0)
           (-30.0 30.0)
  end
  begin
     id 13 
     name thorax
     direction 0.0185169 0.998203 0.0569866   
     length 2.0932   
     axis 0 0 0   XYZ
    dof rx ry rz
    limits (-20.0 45.0)
           (-30.0 30.0)
           (-30.0 30.0)
  end
  begin
     id 14 
     name lowerneck
     direction -0.0212406 0.982645 0.184277   
     length 1.72509   
     axis 0 0 0   XYZ
    dof rx ry rz
    limits (-20.0 45.0)
           (-30.0 30.0)
           (-30.0 30.0)
  end
  begin
     id 15 
     name upperneck
     direction 0.00528579 0.965323 -0.261004   
     length 1.76294   
     axis 0 0 0   XYZ
    dof rx ry rz
    limits (-20.0 45.0)
           (-30.0 30.0)
           (-30.0 30.0)
  end
  begin
     id 16
     name head
     direction 0.00695421 0.994078 -0.108445  
     length 1.78678  
     axis 0 0 0   XYZ
    dof rx ry rz
    limits (-20.0 45.0)
           (-30.0 30.0)
           (-30.0 30.0)
  end
  begin
     id 17 
     name lclavicle
     direction 0.97277 0.211305 -0.095232  
     length 3.84823  
     axis 0 0 0   XYZ
    dof ry rz
    limits (-20.0 10.0)
           (0.0 20.0)
  end
  begin
     id 18 
     name lhumerus
     direction 1 -4.48957e-011 -1.98313e-027   
     length 4.97185   
     axis 180 -30 -90   XYZ
    dof rx ry rz
    limits (-60.0 90.0)
           (-90.0 90.0)
           (-90.0 90.0)
  end
  begin
     id 19
     name lradius
     direction 1 -4.4898e-011 7.31063e-027   
     length 3.35811   
     axis 180 -30 -90   XYZ
    dof rx
    limits (-10.0 170.0)
  end
  begin
     id 20
     name lwrist
     direction 1 -4.48938e-011 9.95048e-027   
     length 1.67905   
     axis -8.75986e-015 90 90   XYZ
    dof ry
    limits (-180.0 0.0)
 end
  begin
     id 21 
     name lhand
     direction 1 -4.4901e-011 1.9901e-026   
     length 0.622776   
     axis -1.26985e-014 90 90   XYZ
    dof rx rz
    limits (-90.0 90.0)
           (-45.0 45.0)
  end
  begin
     id 22 
     name lfingers
     direction 1 -4.48961e-011 3.98019e-026   
     length 0.502098   
     axis -2.5397e-014 90 90   XYZ
    dof rx
    limits (0.0 90.0)
  end
  begin
     id 23
     name lthumb
     direction 0.707107 -6.34933e-011 0.707107   
     length 0.720915   
     axis -90 45 2.85299e-015   XYZ
    dof rx rz
    limits (-45.0 45.0)
           (-45.0 45.0)
  end
  begin
     id 24 
     name rclavicle
     direction -0.990867 0.133739 -0.0172226   
     length 3.78845  
     axis 0 0 0   XYZ 
    dof ry rz
    limits (-10.0 20.0)
           (-20.0 0.0)
  end
  begin
     id 25 
     name rhumerus
     direction -1 -4.48972e-011 -1.99267e-027  
     length 4.96493   
     axis 180 30 90   XYZ
    dof rx ry rz
    limits (-90.0 60.0)
           (-90.0 90.0)
           (-90.0 90.0)
  end
  begin
     id 26 
     name rradius
     direction -1 -4.48969e-011 8.96093e-027   
     length 3.34929   
     axis 180 30 90   XYZ
    dof rx
    limits (-10.0 170.0)
  end
  begin
     id 27 
     name rwrist
     direction -1 -4.48953e-011 9.95048e-027   
     length 1.67464   
     axis -8.75986e-015 -90 -90   XYZ
    dof ry
    limits (-180.0 0.0)
  end
  begin
     id 28
     name rhand
     direction -1 -4.49001e-011 1.9901e-026   
     length 0.638041   
     axis -1.26985e-014 -90 -90   XYZ
    dof rx rz
    limits (-90.0 90.0)
           (-45.0 45.0)
  end
  begin
     id 29
     name rfingers
     direction -1 -4.48967e-011 3.98019e-026   
     length 0.514405   
     axis -2.5397e-014 -90 -90   XYZ
    dof rx
    limits (0.0 90.0)
  end
  begin
     id 30
     name rthumb
     direction -0.707107 -6.34904e-011 0.707107   
     length 0.738586   
     axis -90 -45 -2.85299e-015   XYZ
    dof rx rz
    limits (-45.0 45.0)
           (-45.0 45.0)
  end
:hierarchy
  begin
    root lhipjoint rhipjoint lowerback
    lhipjoint lfemur
    lfemur ltibia
    ltibia lfoot
    lfoot ltoes
    rhipjoint rfemur
    rfemur rtibia
    rtibia rfoot
    rfoot rtoes
    lowerback upperback
    upperback thorax
    thorax lowerneck lclavicle rclavicle
    lowerneck upperneck
    upperneck head
    lclavicle lhumerus
    lhumerus lradius
    lradius lwrist
    lwrist lhand lthumb
    lhand lfingers
    rclavicle rhumerus
    rhumerus rradius
    rradius rwrist
    rwrist rhand rthumb
    rhand rfingers
  end

#!OML:ASF E:\Mandelcareful walks\Project 1\Capture day 1\Session 1\Subject1.ASF
:FULLY-SPECIFIED
:DEGREES
150
root -27.9061 14.9722 1.14898 -322.317 65.7897 -337.686
lowerback 30.7041 -1.77518 1.64933
upperback 8.88989 -1.2024 -1.10563
thorax -6.85266 -0.291569 -1.79906
lowerneck -30.3811 9.54806 4.99645
upperneck 19.702 17.3445 -19.8618
head 14.3847 5.50267 -4.88797
rclavicle 3.18055e-014 -1.82882e-014
rhumerus -20.5443 12.5543 -88.7949
rradius 37.813
rwrist -65.7556
rhand 19.5809 -35.7924
rfingers 7.12502
rthumb 44.1444 -59.6212
lclavicle 3.18055e-014 -1.82882e-014
lhumerus 3.34446 -78.6686 94.088
lradius 53.2706
lwrist 4.19114
lhand -31.5206 -34.1348
lfingers 7.12502
lthumb -4.78583 -4.20884
rfemur -50.5932 -18.3997 9.87001
rtibia 64.2209
rfoot -27.319 -7.13589
rtoes -11.4936
lfemur -55.6653 14.5584 -19.9818
ltibia 43.7872
lfoot -8.40576 6.87785
ltoes -13.3828
151
root -27.7899 14.9119 1.07732 -322.834 65.5038 -338.54
lowerback 31.2579 -1.66656 1.3599
upperback 8.72602 -1.15127 -1.10697
thorax -7.28849 -0.274097 -1.64888
lowerneck -30.4477 9.59327 4.85544
upperneck 19.8744 17.4724 -19.7445
head 14.46 5.54198 -4.79147
rclavicle 1.59028e-014 -5.08889e-014
rhumerus -20.7759 12.5489 -88.7233
rradius 38.3328
rwrist -67.1121
rhand 19.4225 -36.8012
rfingers 7.12502
rthumb 43.9967 -60.6853
lclavicle 1.59028e-014 -5.08889e-014
lhumerus 2.99434 -78.8221 94.4849
lradius 53.6486
lwrist 4.25932
lhand -30.7247 -33.8745
lfingers 7.12502
lthumb -4.01732 -3.93259
rfemur -51.0663 -18.4775 9.66811
rtibia 64.9153
rfoot -27.5993 -6.99857
rtoes -12.7469
lfemur -56.4673 14.1339 -19.6359
ltibia 45.1862
lfoot -4.99088 5.96219
ltoes -6.81794
152
root -27.6675 14.8513 1.00428 -323.775 65.385 -339.779
lowerback 31.6396 -1.67143 1.36684
upperback 8.71362 -1.15972 -1.22401
thorax -7.48223 -0.278033 -1.78052
lowerneck -30.4048 9.63132 4.80239
upperneck 19.7528 17.4799 -19.651
head 14.3795 5.56071 -4.7376
rclavicle -3.26007e-014 7.15625e-015
rhumerus -20.5008 12.1445 -88.723
rradius 37.5911
rwrist -65.9795
rhand 21.2394 -33.8334
rfingers 7.12502
rthumb 45.6879 -57.0568
lclavicle -3.26007e-014 7.15625e-015
lhumerus 4.06133 -79.347 93.1928
lradius 53.9192
lwrist 4.67677
lhand -30.349 -32.9705
lfingers 7.12502
lthumb -3.65451 -3.02212
rfemur -51.3345 -18.4223 9.62213
rtibia 65.5823
rfoot -27.9908 -6.92775
rtoes -14.4467
lfemur -57.3269 13.83 -19.0825
ltibia 46.7541
lfoot -4.98257 6.49146
ltoes -11.8286
153
root -27.5389 14.7969 0.93789 -325.253 65.2476 -341.544
lowerback 32.0565 -1.50573 1.11538
upperback 8.691 -1.01547 -1.13614
thorax -7.68858 -0.211191 -1.58785
lowerneck -30.2952 9.6615 4.65107
upperneck 19.4788 17.531 -19.6805
head 14.2394 5.59304 -4.70084
rclavicle 9.54166e-015 -3.18055e-015
rhumerus -20.3604 12.1885 -88.5727
rradius 37.4451
rwrist -65.7118
rhand 19.6825 -32.577
rfingers 7.12502
rthumb 44.2392 -56.3701
lclavicle 9.54166e-015 -3.18055e-015
lhumerus 5.39289 -78.4199 92.0394
lradius 53.6742
lwrist 0.382645
lhand -26.6446 -30.8075
lfingers 7.12502
lthumb -0.0768704 -0.827788
rfemur -51.4128 -18.0985 9.72356
rtibia 66.156
rfoot -28.4898 -6.77705
rtoes -14.5267
lfemur -58.2009 13.9262 -18.4958
ltibia 48.4749
lfoot -5.29264 7.10096
ltoes -13.5063
154
root -27.4066 14.7544 0.875437 -326.276 65.0948 -342.738
lowerback 32.3421 -1.3289 0.65002
upperback 8.76047 -0.929346 -1.14889
thorax -7.72973 -0.1649 -1.36409
lowerneck -30.2569 9.70175 4.52633
upperneck 19.1219 17.5449 -19.6645
head 14.0679 5.61824 -4.65542
rclavicle 3.10104e-014 2.38542e-015
rhumerus -20.1463 12.2144 -88.5636
rradius 37.6311
rwrist -66.1833
rhand 18.9377 -35.9226
rfingers 7.12502
rthumb 43.5442 -59.9734
lclavicle 3.10104e-014 2.38542e-015
lhumerus 8.58241 -79.843 88.6899
lradius 53.9747
lwrist 3.29238
lhand -28.1632 -30.3209
lfingers 7.12502
lthumb -1.54357 -0.346787
rfemur -51.3084 -17.9791 9.5694
rtibia 66.591
rfoot -28.9196 -6.44217
rtoes -13.7395
lfemur -58.9855 13.9361 -18.2267
ltibia 50.2517
lfoot -5.91691 7.68526
ltoes -15.6802
155
root -27.2681 14.7136 0.809729 -326.593 65.1174 -343.114
lowerback 33.0253 -1.221 0.0711243
upperback 8.2947 -0.973983 -1.22396
thorax -7.80624 -0.171532 -1.01567
lowerneck -30.1156 9.72659 4.315
upperneck 18.8568 17.5965 -19.6349
head 13.9123 5.65618 -4.58689
rclavicle -3.18055e-015 3.77691e-014
rhumerus -20.1475 12.1791 -88.6078
rradius 37.766
rwrist -66.7809
rhand 18.0503 -37.3439
rfingers 7.12502
rthumb 42.7146 -61.6899
lclavicle -3.18055e-015 3.77691e-014
lhumerus 10.97 -80.7888 86.3193
lradius 53.9189
lwrist 4.83643
lhand -27.0289 -28.9568
lfingers 7.12502
lthumb -0.448034 1.02246
rfemur -51.0089 -18.2272 9.13389
rtibia 66.9119
rfoot -29.2355 -6.14463
rtoes -13.5536
lfemur -59.7041 13.6374 -18.2943
ltibia 52.0154
lfoot -6.28656 7.29628
ltoes -14.1646
156
root -27.1206 14.6738 0.737422 -327.144 65.1519 -343.729
lowerback 32.9487 -1.21188 -0.0948832
upperback 8.52574 -1.02247 -1.49875
thorax -7.5289 -0.182445 -1.19999
lowerneck -29.9483 9.79191 4.26347
upperneck 18.3874 17.589 -19.6308
head 13.6769 5.69416 -4.56261
rclavicle 2.70347e-014 1.59028e-015
rhumerus -19.8726 11.7948 -88.8132
rradius 37.6843
rwrist -66.9373
rhand 17.8644 -37.5604
rfingers 7.12502
rthumb 42.5407 -61.9667
lclavicle 2.70347e-014 1.59028e-015
lhumerus 15.6664 -80.8935 81.5216
lradius 53.5742
lwrist 2.52658
lhand -24.0542 -27.4079
lfingers 7.12502
lthumb 2.42503 2.55809
rfemur -50.6141 -18.3264 8.75413
rtibia 67.1393
rfoot -29.5096 -6.15686
rtoes -14.3864
lfemur -60.2956 13.392 -18.2764
ltibia 53.7401
lfoot -7.06816 7.12597
ltoes -11.8861
